<svg width="16" height="17" viewBox="0 0 16 17" fill="none" xmlns="http://www.w3.org/2000/svg">
<defs>
<symbol id="home" viewBox="0 0 16 17">
<path d="M9.5 15.299V11.894C9.49948 11.815 9.48334 11.7368 9.45252 11.664C9.42169 11.5912 9.37679 11.5252 9.32038 11.4698C9.26397 11.4144 9.19718 11.3708 9.12384 11.3413C9.05049 11.3118 8.97204 11.2971 8.893 11.298H7.107C6.94767 11.2972 6.79447 11.3594 6.68078 11.471C6.56709 11.5826 6.50211 11.7347 6.5 11.894V15.299H2.5C2.36877 15.2993 2.23878 15.2736 2.11747 15.2236C1.99615 15.1736 1.8859 15.1001 1.79301 15.0074C1.70013 14.9147 1.62644 14.8046 1.57616 14.6834C1.52588 14.5622 1.5 14.4322 1.5 14.301V7.296C1.5 6.915 1.718 6.567 2.06 6.4L8.02 1.5L13.916 6.389C14.0901 6.46823 14.2377 6.59587 14.3413 6.75669C14.4448 6.91751 14.4999 7.10473 14.5 7.296V14.301C14.5 14.4321 14.4742 14.562 14.4239 14.6831C14.3737 14.8043 14.3001 14.9144 14.2073 15.007C14.1146 15.0997 14.0044 15.1732 13.8832 15.2233C13.762 15.2734 13.6321 15.2991 13.501 15.299H9.5ZM8 9.099C8.17072 9.099 8.33976 9.06537 8.49749 9.00004C8.65521 8.93471 8.79852 8.83895 8.91924 8.71824C9.03996 8.59752 9.13571 8.45421 9.20104 8.29649C9.26637 8.13877 9.3 7.96972 9.3 7.799C9.3 7.62828 9.26637 7.45923 9.20104 7.30151C9.13571 7.14379 9.03996 7.00048 8.91924 6.87976C8.79852 6.75905 8.65521 6.66329 8.49749 6.59796C8.33976 6.53263 8.17072 6.499 8 6.499C7.65522 6.499 7.32456 6.63596 7.08076 6.87976C6.83696 7.12356 6.7 7.45422 6.7 7.799C6.7 8.14378 6.83696 8.47444 7.08076 8.71824C7.32456 8.96204 7.65522 9.099 8 9.099Z" fill="#A3ACB9"/>
<path d="M8.05247 1.50373C7.99821 1.4963 7.943 1.5 7.89021 1.51461C7.83743 1.52923 7.78818 1.55445 7.74547 1.58873L0.602469 7.37273C0.560504 7.40579 0.525586 7.44692 0.499776 7.4937C0.473966 7.54047 0.457787 7.59194 0.452195 7.64507C0.446602 7.6982 0.451709 7.75191 0.467214 7.80304C0.482719 7.85416 0.508307 7.90166 0.542469 7.94273L1.29247 8.86773C1.43047 9.03773 1.68747 9.06773 1.86047 8.92773L8.05247 3.91273L14.2455 8.92773C14.4185 9.06773 14.6755 9.03773 14.8155 8.86773L15.5635 7.94173C15.5976 7.90066 15.6232 7.85316 15.6387 7.80204C15.6542 7.75091 15.6593 7.6972 15.6537 7.64407C15.6482 7.59094 15.632 7.53947 15.6062 7.4927C15.5804 7.44592 15.5454 7.40479 15.5035 7.37173L8.36047 1.58973C8.31764 1.55532 8.26822 1.53002 8.21525 1.5154C8.16229 1.50079 8.10689 1.49716 8.05247 1.50473V1.50373Z" fill="#4F566B"/>
</symbol>
<symbol id="payment" viewBox="0 0 16 17">
<path d="M11.1 10.502C11.1001 10.2262 11.0459 9.95312 10.9405 9.69829C10.8351 9.44345 10.6805 9.21188 10.4856 9.01678C10.2907 8.82169 10.0593 8.66689 9.80456 8.56124C9.54983 8.45558 9.27678 8.40113 9.001 8.401C8.72522 8.40087 8.45212 8.45506 8.19729 8.56047C7.94245 8.66588 7.71088 8.82046 7.51578 9.01537C7.32069 9.21028 7.16589 9.44171 7.06024 9.69644C6.95458 9.95117 6.90013 10.2242 6.9 10.5H1C0.448 10.5 0 10.087 0 9.577V3.423C0 2.913 0.448 2.5 1 2.5H13.002C13.555 2.5 14.002 2.913 14.002 3.423V10.503L11.1 10.502ZM7.006 4.5C6.47477 4.4992 5.96498 4.70947 5.58879 5.08454C5.21259 5.45962 5.0008 5.96877 5 6.5C4.9992 7.03123 5.20947 7.54102 5.58454 7.91721C5.95962 8.29341 6.46877 8.5052 7 8.506C7.26304 8.50639 7.52358 8.45497 7.76674 8.35468C8.00991 8.25438 8.23094 8.10717 8.41721 7.92146C8.60349 7.73574 8.75136 7.51515 8.85238 7.27229C8.95341 7.02942 9.00561 6.76904 9.006 6.506C9.00639 6.24296 8.95498 5.98242 8.85468 5.73926C8.75438 5.49609 8.60717 5.27506 8.42146 5.08879C8.23574 4.90251 8.01515 4.75464 7.77229 4.65362C7.52942 4.55259 7.26904 4.50039 7.006 4.5Z" fill="#7DABF8"/>
<path d="M15 14.5H3C2.448 14.5 2 14.087 2 13.577V7.423C2 6.913 2.448 6.5 3 6.5H15C15.552 6.5 16 6.913 16 7.423V13.577C16 14.087 15.552 14.5 15 14.5ZM9.006 8.5C8.74296 8.49961 8.48242 8.55103 8.23926 8.65132C7.99609 8.75162 7.77506 8.89883 7.58879 9.08454C7.40251 9.27026 7.25464 9.49085 7.15362 9.73371C7.05259 9.97658 7.00039 10.237 7 10.5C6.99961 10.763 7.05103 11.0236 7.15132 11.2667C7.25162 11.5099 7.39883 11.7309 7.58454 11.9172C7.77026 12.1035 7.99085 12.2514 8.23371 12.3524C8.47658 12.4534 8.73696 12.5056 9 12.506C9.53123 12.5068 10.041 12.2965 10.4172 11.9215C10.7934 11.5464 11.0052 11.0372 11.006 10.506C11.0068 9.97477 10.7965 9.46498 10.4215 9.08879C10.0464 8.71259 9.53723 8.5008 9.006 8.5Z" fill="#5469D4"/>
</symbol>
<symbol id="balance" viewBox="0 0 16 17">
<path d="M5.71604 3.87408V9.47104C5.71604 10.0168 5.27543 10.4594 4.72367 10.4594C4.17589 10.4594 3.73131 10.0079 3.73131 9.47203V3.88797L1.91924 5.70103C1.82724 5.79384 1.71779 5.86755 1.5972 5.91791C1.47661 5.96827 1.34725 5.9943 1.21656 5.99448C1.08588 5.99466 0.956444 5.96901 0.835709 5.91899C0.714975 5.86897 0.605322 5.79557 0.513057 5.70301C0.420053 5.61111 0.34625 5.50162 0.29594 5.38093C0.24563 5.26024 0.219817 5.13076 0.220001 5C0.220186 4.86925 0.246365 4.73983 0.297016 4.61929C0.347667 4.49874 0.421779 4.38947 0.515042 4.29782L4.02108 0.792778C4.11407 0.699148 4.22481 0.625026 4.34683 0.574756C4.46884 0.524486 4.59966 0.499081 4.73161 0.500029C4.98864 0.498045 5.24566 0.596289 5.44314 0.792778L8.9462 4.29782C9.34315 4.69477 9.33719 5.31599 8.94918 5.70301C8.85693 5.79542 8.74734 5.86869 8.6267 5.91862C8.50605 5.96856 8.37674 5.99417 8.24617 5.99398C8.1156 5.9938 7.98636 5.96782 7.86585 5.91755C7.74535 5.86728 7.63597 5.79369 7.54398 5.70103L5.71803 3.87507L5.71604 3.87408Z" fill="#A3ACB9"/>
<path d="M12.2508 13.125V7.528C12.2508 7.39791 12.2251 7.26911 12.1751 7.14899C12.1252 7.02886 12.052 6.91979 11.9598 6.82804C11.8676 6.73628 11.7582 6.66366 11.6378 6.61433C11.5174 6.565 11.3885 6.53994 11.2584 6.54059C10.7106 6.54059 10.266 6.99212 10.266 7.528V13.1111L8.45398 11.299C8.362 11.2063 8.25262 11.1328 8.13211 11.0825C8.01161 11.0322 7.88237 11.0062 7.7518 11.006C7.62123 11.0059 7.49191 11.0315 7.37127 11.0814C7.25063 11.1313 7.14104 11.2046 7.04879 11.297C6.95579 11.3889 6.88198 11.4984 6.83167 11.6191C6.78136 11.7398 6.75555 11.8693 6.75573 12C6.75592 12.1308 6.7821 12.2602 6.83275 12.3807C6.8834 12.5013 6.95751 12.6106 7.05078 12.7022L10.5548 16.2063C10.7513 16.4037 11.0093 16.501 11.2654 16.5C11.3975 16.5009 11.5286 16.4754 11.6508 16.4249C11.773 16.3745 11.8838 16.3001 11.9769 16.2063L15.4809 12.7022C15.8779 12.3053 15.8709 11.684 15.4829 11.297C15.3907 11.2046 15.2811 11.1313 15.1604 11.0814C15.0398 11.0315 14.9105 11.0059 14.7799 11.006C14.6493 11.0062 14.5201 11.0322 14.3996 11.0825C14.2791 11.1328 14.1697 11.2063 14.0777 11.299L12.2518 13.125H12.2508Z" fill="#4F566B"/>
</symbol>
<symbol id="customer" viewBox="0 0 16 17">
<path d="M13.445 14.361C12.413 13.385 10.362 12.72 8 12.72C5.638 12.72 3.587 13.385 2.555 14.361C1.37743 13.267 0.55669 11.8437 0.199753 10.2765C-0.157184 8.70932 -0.0337699 7.07095 0.553912 5.57492C1.14159 4.07889 2.16629 2.79457 3.49446 1.88934C4.82263 0.98411 6.39268 0.499947 8 0.499947C9.60732 0.499947 11.1774 0.98411 12.5055 1.88934C13.8337 2.79457 14.8584 4.07889 15.4461 5.57492C16.0338 7.07095 16.1572 8.70932 15.8002 10.2765C15.4433 11.8437 14.6226 13.267 13.445 14.361ZM8 9.731C8.81607 9.731 9.59872 9.40682 10.1758 8.82977C10.7528 8.25272 11.077 7.47007 11.077 6.654C11.077 5.83793 10.7528 5.05528 10.1758 4.47823C9.59872 3.90119 8.81607 3.577 8 3.577C7.18393 3.577 6.40128 3.90119 5.82423 4.47823C5.24718 5.05528 4.923 5.83793 4.923 6.654C4.923 7.47007 5.24718 8.25272 5.82423 8.82977C6.40128 9.40682 7.18393 9.731 8 9.731Z" fill="#4F566B"/>
<path d="M13.944 13.854C13.1947 14.6878 12.2781 15.3544 11.2539 15.8103C10.2298 16.2662 9.12104 16.5012 8 16.5C6.87896 16.5012 5.77024 16.2662 4.74608 15.8103C3.72193 15.3544 2.80533 14.6878 2.056 13.854C2.76 12.543 5.154 11.577 8 11.577C10.846 11.577 13.24 12.543 13.944 13.854Z" fill="#A3ACB9"/>
</symbol>
<symbol id="connected" viewBox="0 0 16 17">
<path d="M8 16.5C5.87827 16.5 3.84344 15.6571 2.34315 14.1569C0.842855 12.6566 0 10.6217 0 8.5C0 6.37827 0.842855 4.34344 2.34315 2.84315C3.84344 1.34285 5.87827 0.5 8 0.5C8.45489 0.5 8.89978 0.546988 9.33367 0.61997V5.49875H10.9993V7.16633H15.88C15.953 7.60122 16 8.04611 16 8.5C16 10.6217 15.1571 12.6566 13.6569 14.1569C12.1566 15.6571 10.1217 16.5 8 16.5ZM9.9915 10.4915H6.34641C6.25626 10.4915 6.1698 10.4557 6.10606 10.3919C6.04231 10.3282 6.0065 10.2417 6.0065 10.1516V6.5125H3.56711C3.52249 6.5125 3.47832 6.52133 3.43714 6.53849C3.39596 6.55565 3.35858 6.58079 3.32717 6.61247L1.09773 8.84191C1.18082 10.5565 1.89972 12.1785 3.11416 13.3917C4.3286 14.6048 5.95145 15.322 7.66608 15.4033L9.89253 13.1758C9.95551 13.1128 9.9925 13.0259 9.9925 12.9359V10.4895L9.9915 10.4915Z" fill="#A3ACB9"/>
<path d="M15.882 7.18433L12.6768 10.3915C12.6454 10.4232 12.608 10.4483 12.5669 10.4655C12.5257 10.4827 12.4815 10.4915 12.4369 10.4915H9.9915V6.85041C9.9915 6.76079 9.9559 6.67484 9.89253 6.61147C9.82916 6.5481 9.74321 6.5125 9.65359 6.5125H6.0075V4.05811C6.00772 3.96804 6.04368 3.88175 6.10747 3.81817L9.30667 0.615971C10.9507 0.888475 12.4685 1.66816 13.6475 2.84591C14.8265 4.02367 15.6078 5.54056 15.882 7.18433Z" fill="#4F566B"/>
</symbol>
<symbol id="product" viewBox="0 0 16 17">
<path d="M13.587 3.87863H13.917L14.259 4.03863C14.596 4.19863 15 4.67863 15 5.12863V12.1946C15 12.5606 14.596 12.8946 14.259 13.0556L8.53302 15.8256C8.41002 15.8836 8.27502 15.9126 8.00002 15.9126V9.89563H2.66002V4.56263L9.70403 1.96963L9.82102 1.85963L12.3 3.06063L11.964 3.89563L13.588 3.87863H13.587Z" fill="#4F566B"/>
<path d="M8.00002 7.62863V15.8756C8.00002 15.8756 7.45402 15.8976 7.28502 15.8246L1.53302 13.0706C1.3721 12.9919 1.2367 12.8693 1.1424 12.717C1.0481 12.5646 0.998748 12.3888 1.00002 12.2096V4.91463C0.998818 4.73562 1.04821 4.55992 1.14251 4.40777C1.23681 4.25561 1.37218 4.1332 1.53302 4.05463L7.63702 1.17263C7.75664 1.11495 7.88773 1.085 8.02052 1.085C8.15332 1.085 8.28441 1.11495 8.40402 1.17263L10.157 2.01063L3.24402 5.31763C3.16632 5.35675 3.10108 5.4168 3.05567 5.491C3.01026 5.56521 2.98649 5.65063 2.98702 5.73763L2.99402 7.76763L5.00202 8.79963V6.70563C5.00149 6.61901 5.02505 6.53395 5.07009 6.45995C5.11512 6.38596 5.17984 6.32595 5.25702 6.28663L12.163 2.97363L14.154 3.92663C14.342 4.01963 14.504 4.19463 14.66 4.35363L8.00002 7.62863Z" fill="#A3ACB9"/>
</symbol>
<symbol id="report" viewBox="0 0 16 17">
<path d="M2 9.5H3C3.26522 9.5 3.51957 9.39464 3.70711 9.20711C3.89464 9.01957 4 8.76522 4 8.5C4 8.23478 3.89464 7.98043 3.70711 7.79289C3.51957 7.60536 3.26522 7.5 3 7.5H2V5.5H3C3.26522 5.5 3.51957 5.39464 3.70711 5.20711C3.89464 5.01957 4 4.76522 4 4.5C4 4.23478 3.89464 3.98043 3.70711 3.79289C3.51957 3.60536 3.26522 3.5 3 3.5H2V2.5C2 1.96957 2.21071 1.46086 2.58579 1.08579C2.96086 0.710714 3.46957 0.5 4 0.5L14 0.5C14.5304 0.5 15.0391 0.710714 15.4142 1.08579C15.7893 1.46086 16 1.96957 16 2.5V14.5C16 15.0304 15.7893 15.5391 15.4142 15.9142C15.0391 16.2893 14.5304 16.5 14 16.5H4C3.46957 16.5 2.96086 16.2893 2.58579 15.9142C2.21071 15.5391 2 15.0304 2 14.5V13.5H3C3.26522 13.5 3.51957 13.3946 3.70711 13.2071C3.89464 13.0196 4 12.7652 4 12.5C4 12.2348 3.89464 11.9804 3.70711 11.7929C3.51957 11.6054 3.26522 11.5 3 11.5H2V9.5Z" fill="#A3ACB9"/>
<path d="M6 10.5H8V13.5H6V10.5ZM9 7.5H11V13.5H9V7.5ZM12 3.5H14V13.5H12V3.5ZM0 12.5C0 12.2348 0.105357 11.9804 0.292893 11.7929C0.48043 11.6054 0.734784 11.5 1 11.5H2V13.5H1C0.734784 13.5 0.48043 13.3946 0.292893 13.2071C0.105357 13.0196 0 12.7652 0 12.5ZM0 8.5C0 8.23478 0.105357 7.98043 0.292893 7.79289C0.48043 7.60536 0.734784 7.5 1 7.5H2V9.5H1C0.734784 9.5 0.48043 9.39464 0.292893 9.20711C0.105357 9.01957 0 8.76522 0 8.5ZM0 4.5C0 4.23478 0.105357 3.98043 0.292893 3.79289C0.48043 3.60536 0.734784 3.5 1 3.5H2V5.5H1C0.734784 5.5 0.48043 5.39464 0.292893 5.20711C0.105357 5.01957 0 4.76522 0 4.5Z" fill="#4F566B"/>
</symbol>
<symbol id="settings" viewBox="0 0 16 17">
<path fill-rule="evenodd" clip-rule="evenodd" d="M14.197 7.517C13.967 7.517 12.59 7.517 12.017 6.822C12.017 6.707 11.902 6.707 11.902 6.591C11.787 5.781 12.82 4.74 12.934 4.624C13.164 4.393 13.164 4.045 13.049 3.93C12.934 3.814 12.475 3.351 12.361 3.12C12.246 2.888 11.901 3.004 11.672 3.236C11.442 3.466 10.525 4.393 9.722 4.276C9.607 4.276 9.607 4.161 9.492 4.161C8.803 3.698 8.803 2.31 8.803 2.079C8.803 1.731 8.689 1.5 8.459 1.5H7.311C7.082 1.5 6.967 1.731 6.967 2.079C6.967 2.309 6.967 3.699 6.279 4.277C6.164 4.277 6.164 4.393 6.049 4.393C5.246 4.393 4.328 3.467 4.099 3.236C3.869 3.004 3.525 3.004 3.409 3.12C3.295 3.351 2.836 3.814 2.607 3.93C2.492 4.045 2.492 4.393 2.721 4.624C2.951 4.855 3.869 5.781 3.754 6.591C3.754 6.707 3.639 6.707 3.639 6.822C3.18 7.517 1.803 7.517 1.574 7.517C1.23 7.517 1 7.632 1 7.864V8.905C1 9.136 1.23 9.368 1.574 9.368C1.804 9.368 3.18 9.368 3.754 10.062C3.754 10.178 3.869 10.178 3.869 10.293C3.984 11.103 2.951 12.145 2.836 12.26C2.606 12.492 2.606 12.839 2.721 12.955C2.836 13.07 3.295 13.533 3.41 13.765C3.525 13.88 3.869 13.88 4.098 13.649C4.328 13.417 5.246 12.492 6.049 12.607C6.164 12.607 6.164 12.723 6.279 12.723C6.967 13.302 6.967 14.574 6.967 14.921C6.967 15.153 7.197 15.5 7.427 15.5H8.459C8.689 15.5 8.918 15.269 8.918 14.921C8.918 14.691 8.918 13.301 9.607 12.723C9.721 12.723 9.721 12.607 9.837 12.607C10.639 12.492 11.672 13.533 11.787 13.649C12.017 13.88 12.361 13.88 12.475 13.764L13.279 12.954C13.393 12.839 13.393 12.492 13.164 12.26C12.934 12.029 12.016 11.103 12.131 10.293C12.131 10.178 12.246 10.178 12.246 10.062C12.82 9.368 14.082 9.368 14.426 9.368C14.656 9.368 15 9.136 15 8.905V7.864C14.77 7.632 14.541 7.517 14.197 7.517ZM7.885 10.987C6.508 10.987 5.361 9.831 5.361 8.442C5.361 7.054 6.508 5.897 7.885 5.897C9.262 5.897 10.41 7.054 10.41 8.442C10.41 9.831 9.262 10.988 7.885 10.988V10.987Z" fill="#4F566B"/>
</symbol>
<symbol id="off" viewBox="0 0 26 15">
<rect x="0.5" y="1" width="25" height="15" rx="7.5" fill="#E3E8EE" stroke="#D9DCE1"/>
<rect x="0.5" y="1" width="15" height="15" rx="7.5" fill="white" stroke="#C2C7CF"/>
</symbol>
<symbol id="developer" viewBox="0 0 16 17">
<path d="M11.1 10.502C11.1001 10.2262 11.0459 9.95312 10.9405 9.69829C10.8351 9.44345 10.6805 9.21188 10.4856 9.01678C10.2907 8.82169 10.0593 8.66689 9.80456 8.56124C9.54983 8.45558 9.27678 8.40113 9.001 8.401C8.72522 8.40087 8.45212 8.45506 8.19729 8.56047C7.94245 8.66588 7.71088 8.82046 7.51578 9.01537C7.32069 9.21028 7.16589 9.44171 7.06024 9.69644C6.95458 9.95117 6.90013 10.2242 6.9 10.5H1C0.448 10.5 0 10.087 0 9.577V3.423C0 2.913 0.448 2.5 1 2.5H13.002C13.555 2.5 14.002 2.913 14.002 3.423V10.503L11.1 10.502ZM7.006 4.5C6.47477 4.4992 5.96498 4.70947 5.58879 5.08454C5.21259 5.45962 5.0008 5.96877 5 6.5C4.9992 7.03123 5.20947 7.54102 5.58454 7.91721C5.95962 8.29341 6.46877 8.5052 7 8.506C7.26304 8.50639 7.52358 8.45497 7.76674 8.35468C8.00991 8.25438 8.23094 8.10717 8.41721 7.92146C8.60349 7.73574 8.75136 7.51515 8.85238 7.27229C8.95341 7.02942 9.00561 6.76904 9.006 6.506C9.00639 6.24296 8.95498 5.98242 8.85468 5.73926C8.75438 5.49609 8.60717 5.27506 8.42146 5.08879C8.23574 4.90251 8.01515 4.75464 7.77229 4.65362C7.52942 4.55259 7.26904 4.50039 7.006 4.5Z" fill="#A3ACB9"/>
<path d="M15 14.5H3C2.448 14.5 2 14.087 2 13.577V7.423C2 6.913 2.448 6.5 3 6.5H15C15.552 6.5 16 6.913 16 7.423V13.577C16 14.087 15.552 14.5 15 14.5ZM9.006 8.5C8.74296 8.49961 8.48242 8.55103 8.23926 8.65132C7.99609 8.75162 7.77506 8.89883 7.58879 9.08454C7.40251 9.27026 7.25464 9.49085 7.15362 9.73371C7.05259 9.97658 7.00039 10.237 7 10.5C6.99961 10.763 7.05103 11.0236 7.15132 11.2667C7.25162 11.5099 7.39883 11.7309 7.58454 11.9172C7.77026 12.1035 7.99085 12.2514 8.23371 12.3524C8.47658 12.4534 8.73696 12.5056 9 12.506C9.53123 12.5068 10.041 12.2965 10.4172 11.9215C10.7934 11.5464 11.0052 11.0372 11.006 10.506C11.0068 9.97477 10.7965 9.46498 10.4215 9.08879C10.0464 8.71259 9.53723 8.5008 9.006 8.5Z" fill="#4F566B"/>
</symbol>
<symbol id="store" viewBox="0 0 16 17">
<path fill-rule="evenodd" clip-rule="evenodd" d="M3 7.5V12H13V7.5C13.718 7.5 14.398 7.332 15 7.032V15C15 15.2652 14.8946 15.5196 14.7071 15.7071C14.5196 15.8946 14.2652 16 14 16H2C1.73478 16 1.48043 15.8946 1.29289 15.7071C1.10536 15.5196 1 15.2652 1 15V7.032C1.602 7.332 2.282 7.5 3 7.5ZM7.88777e-08 3L1.703 0.445C1.79435 0.308084 1.91808 0.195832 2.06322 0.118205C2.20835 0.0405779 2.37041 -2.46193e-05 2.535 1.11994e-08H13.465C13.6296 -2.46193e-05 13.7916 0.0405779 13.9368 0.118205C14.0819 0.195832 14.2057 0.308084 14.297 0.445L16 3C16.0001 3.64453 15.7927 4.27197 15.4084 4.7894C15.0241 5.30683 14.4834 5.68674 13.8664 5.87287C13.2493 6.059 12.5887 6.04145 11.9824 5.82282C11.3761 5.60419 10.8563 5.19611 10.5 4.659C9.963 5.467 9.043 6 8 6C6.957 6 6.037 5.467 5.5 4.659C5.14372 5.19611 4.62394 5.60419 4.01763 5.82282C3.41132 6.04145 2.75071 6.059 2.13365 5.87287C1.51658 5.68674 0.975864 5.30683 0.591573 4.7894C0.207283 4.27197 -0.000147673 3.64453 7.88777e-08 3Z" fill="#A3ACB9"/>
</symbol>
<symbol id="search" viewBox="0 0 16 17">
<g clip-path="url(#clip0)">
<path fill-rule="evenodd" clip-rule="evenodd" d="M9.45 8.9C9.47775 8.921 9.50475 8.94425 9.53025 8.96975L11.7803 11.2198C11.8519 11.2889 11.909 11.3717 11.9483 11.4632C11.9876 11.5547 12.0083 11.6531 12.0092 11.7527C12.0101 11.8523 11.9911 11.951 11.9534 12.0432C11.9157 12.1354 11.86 12.2191 11.7895 12.2895C11.7191 12.36 11.6354 12.4157 11.5432 12.4534C11.451 12.4911 11.3523 12.5101 11.2527 12.5092C11.1531 12.5083 11.0547 12.4876 10.9632 12.4483C10.8717 12.409 10.7889 12.3519 10.7198 12.2803L8.46975 10.0303C8.44465 10.0052 8.42134 9.97836 8.4 9.95C7.33763 10.7468 6.01279 11.1114 4.69234 10.9703C3.37189 10.8292 2.15395 10.193 1.28387 9.18981C0.413786 8.1866 -0.0437926 6.89093 0.003306 5.5638C0.0504046 4.23668 0.598681 2.9767 1.53769 2.03769C2.4767 1.09868 3.73668 0.550405 5.0638 0.503306C6.39093 0.456207 7.6866 0.913786 8.68981 1.78387C9.69303 2.65395 10.3292 3.87189 10.4703 5.19234C10.6114 6.51279 10.2468 7.83763 9.45 8.9ZM5.25 9.5C6.24456 9.5 7.19839 9.10491 7.90165 8.40165C8.60491 7.69839 9 6.74456 9 5.75C9 4.75544 8.60491 3.80161 7.90165 3.09835C7.19839 2.39509 6.24456 2 5.25 2C4.25544 2 3.30161 2.39509 2.59835 3.09835C1.89509 3.80161 1.5 4.75544 1.5 5.75C1.5 6.74456 1.89509 7.69839 2.59835 8.40165C3.30161 9.10491 4.25544 9.5 5.25 9.5Z" fill="#697386"/>
</g>
<defs>
<clipPath id="clip0">
<rect width="12" height="12" fill="white" transform="translate(0 0.5)"/>
</clipPath>
</defs></symbol>
<symbol id="notification" viewBox="0 0 16 17">
<path fill-rule="evenodd" clip-rule="evenodd" d="M5.55382 14H10.4538C10.3391 14.5651 10.0325 15.0732 9.58595 15.4382C9.13945 15.8031 8.5805 16.0025 8.00382 16.0025C7.42715 16.0025 6.8682 15.8031 6.42169 15.4382C5.97519 15.0732 5.66858 14.5651 5.55382 14ZM13.0038 9.066L14.2198 10.298C14.3582 10.4384 14.452 10.6166 14.4895 10.8102C14.5269 11.0037 14.5063 11.204 14.4302 11.3859C14.3541 11.5678 14.2259 11.7231 14.0618 11.8324C13.8977 11.9417 13.705 12 13.5078 12H2.49982C2.30267 12 2.10993 11.9417 1.94582 11.8324C1.78171 11.7231 1.65356 11.5678 1.57747 11.3859C1.50138 11.204 1.48076 11.0037 1.51818 10.8102C1.55561 10.6166 1.64942 10.4384 1.78782 10.298L3.00382 9.066V5C3.00382 3.67392 3.53061 2.40215 4.46829 1.46447C5.40597 0.526784 6.67774 0 8.00382 0C9.32991 0 10.6017 0.526784 11.5394 1.46447C12.477 2.40215 13.0038 3.67392 13.0038 5V9.066Z" fill="#A3ACB9"/>
</symbol>
<symbol id="help" viewBox="0 0 16 17">
<path fill-rule="evenodd" clip-rule="evenodd" d="M8 16C5.87827 16 3.84344 15.1571 2.34315 13.6569C0.842855 12.1566 0 10.1217 0 8C0 5.87827 0.842855 3.84344 2.34315 2.34315C3.84344 0.842855 5.87827 0 8 0C10.1217 0 12.1566 0.842855 13.6569 2.34315C15.1571 3.84344 16 5.87827 16 8C16 10.1217 15.1571 12.1566 13.6569 13.6569C12.1566 15.1571 10.1217 16 8 16ZM7 8.089V8.5C7.00012 8.73179 7.08076 8.95634 7.22812 9.13525C7.37549 9.31416 7.58043 9.43633 7.8079 9.48085C8.03538 9.52538 8.27125 9.4895 8.4752 9.37936C8.67914 9.26921 8.83849 9.09164 8.926 8.877C9.51268 8.7178 10.047 8.40666 10.475 7.975C11.1314 7.31859 11.5002 6.42831 11.5002 5.5C11.5002 4.57169 11.1314 3.68141 10.475 3.025C9.81859 2.36859 8.9283 1.99982 8 1.99982C7.07169 1.99982 6.18141 2.36859 5.525 3.025C5.19595 3.34909 4.9356 3.73618 4.75948 4.16314C4.58337 4.5901 4.49512 5.04817 4.5 5.51C4.50265 5.77641 4.61103 6.03086 4.80128 6.21736C4.89549 6.30971 5.00696 6.3826 5.12933 6.43186C5.25171 6.48113 5.38259 6.50581 5.5145 6.5045C5.64641 6.50319 5.77678 6.4759 5.89814 6.42421C6.01951 6.37252 6.12951 6.29742 6.22186 6.20322C6.31421 6.10901 6.3871 5.99754 6.43636 5.87517C6.48563 5.75279 6.51031 5.62191 6.509 5.49C6.5067 5.29531 6.54419 5.1022 6.61916 4.92251C6.69413 4.74282 6.80501 4.58033 6.945 4.445C7.22603 4.1652 7.60643 4.00808 8.003 4.008C8.39188 4.01807 8.76146 4.17963 9.03295 4.45824C9.30444 4.73685 9.45638 5.11049 9.45638 5.4995C9.45638 5.88851 9.30444 6.26215 9.03295 6.54076C8.76146 6.81937 8.39188 6.98093 8.003 6.991C7.86285 6.99051 7.72415 7.01937 7.59582 7.07572C7.46749 7.13207 7.35239 7.21467 7.25791 7.31819C7.16343 7.42171 7.09167 7.54386 7.04725 7.67679C7.00283 7.80972 6.98674 7.95048 7 8.09V8.089ZM8 14C8.19698 14 8.39204 13.9612 8.57403 13.8858C8.75601 13.8104 8.92137 13.6999 9.06066 13.5607C9.19995 13.4214 9.31044 13.256 9.38582 13.074C9.4612 12.892 9.5 12.697 9.5 12.5C9.5 12.303 9.4612 12.108 9.38582 11.926C9.31044 11.744 9.19995 11.5786 9.06066 11.4393C8.92137 11.3001 8.75601 11.1896 8.57403 11.1142C8.39204 11.0388 8.19698 11 8 11C7.60218 11 7.22064 11.158 6.93934 11.4393C6.65804 11.7206 6.5 12.1022 6.5 12.5C6.5 12.8978 6.65804 13.2794 6.93934 13.5607C7.22064 13.842 7.60218 14 8 14Z" fill="#A3ACB9"/>
</symbol>
<symbol id="avatar" viewBox="0 0 16 17">
<path fill-rule="evenodd" clip-rule="evenodd" d="M8 11C9.44808 11.0018 10.8425 10.4523 11.9 9.463L13.66 10.123C14.3473 10.381 14.9395 10.8425 15.3576 11.4459C15.7757 12.0493 15.9998 12.7659 16 13.5V15C16 15.2652 15.8946 15.5196 15.7071 15.7071C15.5196 15.8946 15.2652 16 15 16H1C0.734784 16 0.48043 15.8946 0.292893 15.7071C0.105357 15.5196 0 15.2652 0 15V13.5C0 11.996 0.933 10.65 2.34 10.122L4.1 9.462C5.15731 10.4517 6.55179 11.0016 8 11ZM7.804 1.99831e-09H8.196C8.68007 -4.83557e-06 9.15888 0.100404 9.60217 0.294881C10.0455 0.489358 10.4436 0.773674 10.7714 1.12986C11.0992 1.48605 11.3495 1.90636 11.5066 2.36424C11.6637 2.82211 11.7241 3.30759 11.684 3.79L11.52 5.761C11.447 6.64438 11.0445 7.46801 10.3924 8.06841C9.74037 8.66882 8.88639 9.0021 8 9.0021C7.11361 9.0021 6.25963 8.66882 5.60756 8.06841C4.95549 7.46801 4.553 6.64438 4.48 5.761L4.316 3.791C4.27575 3.30851 4.33603 2.82292 4.49305 2.36493C4.65007 1.90693 4.9004 1.4865 5.22822 1.1302C5.55604 0.773902 5.95422 0.489494 6.39758 0.294957C6.84094 0.100419 7.31984 -1.63578e-05 7.804 1.99831e-09V1.99831e-09Z" fill="#A3ACB9"/>
</symbol>
<symbol id="export" viewBox="0 0 16 17">
<path fill-rule="evenodd" clip-rule="evenodd" d="M14.0021 10.0575C14.0021 10.2801 13.9137 10.4935 13.7563 10.6509C13.5989 10.8083 13.3854 10.8967 13.1628 10.8967C12.9403 10.8967 12.7268 10.8083 12.5694 10.6509C12.412 10.4935 12.3236 10.2801 12.3236 10.0575V5.35766L3.42163 14.2563C3.34426 14.3336 3.25242 14.3949 3.15136 14.4367C3.05029 14.4785 2.94198 14.5 2.8326 14.5C2.72322 14.5 2.61492 14.4784 2.51389 14.4365C2.41285 14.3946 2.32105 14.3332 2.24374 14.2558C2.16643 14.1785 2.10511 14.0866 2.06329 13.9856C2.02147 13.8845 1.99996 13.7762 2 13.6668C2.00004 13.5574 2.02162 13.4491 2.06351 13.3481C2.10541 13.2471 2.16679 13.1553 2.24416 13.0779L11.1444 4.17935H6.44462C6.22193 4.17935 6.00835 4.09088 5.85088 3.93341C5.69341 3.77594 5.60495 3.56237 5.60495 3.33967C5.60495 3.11698 5.69341 2.9034 5.85088 2.74593C6.00835 2.58847 6.22193 2.5 6.44462 2.5H13.1754C13.2563 2.50104 13.3366 2.51376 13.4138 2.53777C13.5846 2.5899 13.7341 2.69569 13.84 2.83945C13.946 2.98322 14.0028 3.1573 14.0021 3.3359V10.0575Z" fill="#4F566B"/>
</symbol>
<symbol id="create" viewBox="0 0 16 17">
<path fill-rule="evenodd" clip-rule="evenodd" d="M8.75 7.75H13.25C13.4489 7.75 13.6397 7.82902 13.7803 7.96967C13.921 8.11032 14 8.30109 14 8.5C14 8.69891 13.921 8.88968 13.7803 9.03033C13.6397 9.17098 13.4489 9.25 13.25 9.25H8.75V13.75C8.75 13.9489 8.67098 14.1397 8.53033 14.2803C8.38968 14.421 8.19891 14.5 8 14.5C7.80109 14.5 7.61032 14.421 7.46967 14.2803C7.32902 14.1397 7.25 13.9489 7.25 13.75V9.25H2.75C2.55109 9.25 2.36032 9.17098 2.21967 9.03033C2.07902 8.88968 2 8.69891 2 8.5C2 8.30109 2.07902 8.11032 2.21967 7.96967C2.36032 7.82902 2.55109 7.75 2.75 7.75H7.25V3.25C7.25 3.05109 7.32902 2.86032 7.46967 2.71967C7.61032 2.57902 7.80109 2.5 8 2.5C8.19891 2.5 8.38968 2.57902 8.53033 2.71967C8.67098 2.86032 8.75 3.05109 8.75 3.25V7.75Z" fill="white"/>
</symbol>
<symbol id="filter" viewBox="0 0 16 17">
<path fill-rule="evenodd" clip-rule="evenodd" d="M12.4982 2.5C12.9146 2.5 13.2529 2.83609 13.2529 3.25021C13.2528 3.4172 13.1968 3.57935 13.0939 3.71083L8.75617 9.25487L8.75167 12.7943C8.75175 12.893 8.73238 12.9907 8.69466 13.0818C8.65694 13.1729 8.60162 13.2558 8.53186 13.3255L7.37954 14.4778C7.3691 14.4883 7.35576 14.4955 7.34122 14.4985C7.32668 14.5015 7.31159 14.5 7.29786 14.4944C7.28413 14.4888 7.27237 14.4792 7.26408 14.4669C7.25578 14.4546 7.25132 14.4401 7.25126 14.4253V9.25487L2.90906 3.71083C2.84818 3.63314 2.80329 3.54414 2.777 3.449C2.7507 3.35385 2.74352 3.25444 2.75587 3.15651C2.76821 3.05857 2.79984 2.96405 2.84893 2.87841C2.89801 2.79277 2.96358 2.7177 3.04185 2.65754C3.17449 2.55532 3.33726 2.49992 3.50472 2.5H12.4982Z" fill="#4F566B"/>
</symbol>
<symbol id="chevron" viewBox="0 0 16 17">
<path fill-rule="evenodd" clip-rule="evenodd" d="M10.1933 3.96975C10.263 3.90002 10.3458 3.84471 10.4369 3.80697C10.528 3.76923 10.6256 3.74981 10.7243 3.74981C10.8229 3.74981 10.9205 3.76923 11.0116 3.80697C11.1027 3.84471 11.1855 3.90002 11.2553 3.96975C11.325 4.03949 11.3803 4.12227 11.418 4.21338C11.4558 4.30449 11.4752 4.40214 11.4752 4.50075C11.4752 4.59937 11.4558 4.69702 11.418 4.78813C11.3803 4.87924 11.325 4.96202 11.2553 5.03175L6.53025 9.75675C6.38961 9.89736 6.19888 9.97635 6.00001 9.97635C5.80113 9.97635 5.6104 9.89736 5.46976 9.75675L0.744755 5.03175C0.603925 4.89083 0.524847 4.69972 0.524918 4.50049C0.524988 4.30126 0.604201 4.11021 0.74513 3.96938C0.88606 3.82855 1.07716 3.74947 1.2764 3.74954C1.47563 3.74961 1.66668 3.82883 1.80751 3.96975L6.00001 8.163L10.1933 3.96975Z" fill="#4F566B"/>
</symbol>
<symbol id="success" viewBox="0 0 16 17">
<path fill-rule="evenodd" clip-rule="evenodd" d="M5.97274 11.9097L2.21974 8.19125C1.92724 7.89575 1.92724 7.4165 2.21974 7.12175C2.51224 6.827 2.98774 6.82625 3.28024 7.12175L6.50074 10.2897L12.7167 4.09625C13.0092 3.8015 13.4847 3.8015 13.7772 4.09625C14.0697 4.391 14.0697 4.871 13.7772 5.16575L7.02499 11.906C6.88579 12.0455 6.69705 12.1241 6.50001 12.1248C6.30298 12.1255 6.11368 12.0482 5.97349 11.9097H5.97274Z" fill="#0E6245"/>
</symbol>
<symbol id="more" viewBox="0 0 12 12">
<path fill-rule="evenodd" clip-rule="evenodd" d="M1.5 7.5C1.10218 7.5 0.720644 7.34196 0.43934 7.06066C0.158035 6.77936 0 6.39782 0 6C0 5.60218 0.158035 5.22064 0.43934 4.93934C0.720644 4.65804 1.10218 4.5 1.5 4.5C1.89782 4.5 2.27936 4.65804 2.56066 4.93934C2.84196 5.22064 3 5.60218 3 6C3 6.39782 2.84196 6.77936 2.56066 7.06066C2.27936 7.34196 1.89782 7.5 1.5 7.5ZM6 7.5C5.60218 7.5 5.22064 7.34196 4.93934 7.06066C4.65804 6.77936 4.5 6.39782 4.5 6C4.5 5.60218 4.65804 5.22064 4.93934 4.93934C5.22064 4.65804 5.60218 4.5 6 4.5C6.39782 4.5 6.77936 4.65804 7.06066 4.93934C7.34196 5.22064 7.5 5.60218 7.5 6C7.5 6.39782 7.34196 6.77936 7.06066 7.06066C6.77936 7.34196 6.39782 7.5 6 7.5ZM10.5 7.5C10.1022 7.5 9.72064 7.34196 9.43934 7.06066C9.15804 6.77936 9 6.39782 9 6C9 5.60218 9.15804 5.22064 9.43934 4.93934C9.72064 4.65804 10.1022 4.5 10.5 4.5C10.8978 4.5 11.2794 4.65804 11.5607 4.93934C11.842 5.22064 12 5.60218 12 6C12 6.39782 11.842 6.77936 11.5607 7.06066C11.2794 7.34196 10.8978 7.5 10.5 7.5Z" fill="#4F566B"/>
</symbol>
<symbol id="eye" viewBox="0 0 16 17">
<path fill-rule="evenodd" clip-rule="evenodd" d="M8 14.968C3.582 14.968 0 10.282 0 8.96802C0 7.65402 3.582 2.96802 8 2.96802C12.418 2.96802 16 7.65402 16 8.96802C16 10.282 12.418 14.968 8 14.968ZM8 12.968C9.06087 12.968 10.0783 12.5466 10.8284 11.7964C11.5786 11.0463 12 10.0289 12 8.96802C12 7.90715 11.5786 6.88974 10.8284 6.13959C10.0783 5.38944 9.06087 4.96802 8 4.96802C6.93913 4.96802 5.92172 5.38944 5.17157 6.13959C4.42143 6.88974 4 7.90715 4 8.96802C4 10.0289 4.42143 11.0463 5.17157 11.7964C5.92172 12.5466 6.93913 12.968 8 12.968ZM8 10.968C7.46957 10.968 6.96086 10.7573 6.58579 10.3822C6.21071 10.0072 6 9.49845 6 8.96802C6 8.43758 6.21071 7.92888 6.58579 7.5538C6.96086 7.17873 7.46957 6.96802 8 6.96802C8.53043 6.96802 9.03914 7.17873 9.41421 7.5538C9.78929 7.92888 10 8.43758 10 8.96802C10 9.49845 9.78929 10.0072 9.41421 10.3822C9.03914 10.7573 8.53043 10.968 8 10.968Z" fill="#A3ACB9"/>
</symbol>
<symbol id="blue-rec" viewBox="0 0 314 107">
<path d="M0 107V67.5L314.5 0V40L0 107Z" fill="#0C00FA" fill-opacity="0.5"/></symbol>
<symbol id="lightBlue-rec" viewBox="0 0 159 74">
<path d="M0 73.5V33.5L159 0V40L0 73.5Z" fill="#81E9FF"/>
</symbol>
</defs>
</svg>
